# xmcd
#
# Track frame offsets:
#	150
#	11487
#	24200
#
# Disc length: 473 seconds
#
# Revision: 0
# Processed by: cddbd v1.5.2PL0 Copyright (c) Steve Scherf et al.
# Submitted via: audiograbber 1.83.01
#
DISCID=1201d703
DTITLE=The Drifters and Ben E. King - This Magic Moment
DYEAR=1900
DGENRE=Soul
TTITLE0=This Magic Moment
TTITLE1=Dont Play That Song
TTITLE2=Groovin
EXTD=
EXTT0=
EXTT1=
EXTT2=
PLAYORDER=
